<svg width="284" height="68" viewBox="0 0 284 68" fill="none" xmlns="http://www.w3.org/2000/svg">
<path d="M34.5 4C50.7924 4 64 17.2076 64 33.5C64 49.7924 50.7924 63 34.5 63C18.2076 63 5 49.7924 5 33.5C5 17.2076 18.2076 4 34.5 4Z" fill="url(#paint0_linear_0_1)"/>
<circle cx="34.5" cy="33.5" r="19.5" fill="#F5F5F5"/>
<path d="M106.24 52.576C105.088 52.576 104.085 52.32 103.232 51.808C102.421 51.296 101.845 50.592 101.504 49.696L90.24 20.128C90.5387 19.9147 91.0933 19.744 91.904 19.616C92.7573 19.488 93.4613 19.424 94.016 19.424C95.3813 19.424 96.5973 19.7013 97.664 20.256C98.7733 20.768 99.4987 21.5573 99.84 22.624L105.792 41.568L104.704 44.704L105.28 44.896L112.64 22.624C112.981 21.5573 113.685 20.768 114.752 20.256C115.861 19.7013 117.099 19.424 118.464 19.424C119.019 19.424 119.701 19.488 120.512 19.616C121.365 19.744 121.941 19.9147 122.24 20.128L110.976 49.696C110.635 50.592 110.037 51.296 109.184 51.808C108.373 52.32 107.392 52.576 106.24 52.576ZM138.169 52.576C135.523 52.576 133.07 52.0427 130.809 50.976C128.59 49.9093 126.819 48.4587 125.497 46.624C124.174 44.7893 123.513 42.7413 123.513 40.48V32.288C123.513 29.8987 124.174 27.7227 125.497 25.76C126.862 23.7547 128.675 22.1973 130.937 21.088C133.198 19.9787 135.63 19.424 138.233 19.424C140.793 19.424 143.139 19.9573 145.273 21.024C147.449 22.048 149.155 23.52 150.393 25.44C151.63 27.3173 152.249 29.4507 152.249 31.84V35.296C152.249 36.32 151.865 37.1947 151.097 37.92C150.329 38.6027 149.347 38.944 148.153 38.944H132.025V39.84C132.025 41.5467 132.537 42.9547 133.561 44.064C134.627 45.1307 136.185 45.664 138.233 45.664C140.238 45.664 141.71 45.2373 142.649 44.384C143.587 43.488 144.057 42.3787 144.057 41.056C144.91 40.9707 145.55 40.928 145.977 40.928C147.726 40.928 149.07 41.2907 150.009 42.016C150.947 42.7413 151.417 43.808 151.417 45.216C151.417 46.368 150.841 47.52 149.689 48.672C148.537 49.824 146.937 50.7627 144.889 51.488C142.883 52.2133 140.643 52.576 138.169 52.576ZM144.313 32.736V31.84C144.313 30.1333 143.737 28.7893 142.585 27.808C141.475 26.784 140.003 26.272 138.169 26.272C136.334 26.272 134.841 26.784 133.689 27.808C132.579 28.7893 132.025 30.1333 132.025 31.84V32.736H144.313ZM160.905 65.376C159.113 65.376 157.705 64.736 156.681 63.456C155.657 62.2187 155.145 60.384 155.145 57.952C156.382 58.208 157.513 58.336 158.537 58.336C159.604 58.336 160.478 58.1653 161.161 57.824C161.844 57.5253 162.484 56.9493 163.081 56.096C163.721 55.2427 164.425 53.9627 165.193 52.256L166.153 50.08L153.865 20.128C154.164 19.9147 154.718 19.744 155.529 19.616C156.382 19.488 157.086 19.424 157.641 19.424C158.964 19.424 160.18 19.7013 161.289 20.256C162.441 20.8107 163.209 21.6 163.593 22.624L169.865 39.328L168.777 42.464L169.353 42.656L177.161 22.624C177.588 21.5573 178.334 20.768 179.401 20.256C180.51 19.7013 181.748 19.424 183.113 19.424C183.668 19.424 184.35 19.488 185.161 19.616C186.014 19.744 186.59 19.9147 186.889 20.128L172.617 54.816C171.124 58.4427 169.46 61.1093 167.625 62.816C165.833 64.5227 163.593 65.376 160.905 65.376ZM203.525 52.576C199.813 52.576 197.018 51.5307 195.141 49.44C193.264 47.3067 192.325 44.6187 192.325 41.376V11.744C192.325 9.90933 193.029 8.608 194.437 7.84C195.888 7.02933 198.106 6.624 201.093 6.624V41.056C201.093 42.464 201.413 43.488 202.053 44.128C202.693 44.7253 203.696 45.024 205.061 45.024C206.682 45.024 208.282 44.5973 209.861 43.744C210.33 44.1707 210.693 44.704 210.949 45.344C211.248 45.984 211.397 46.624 211.397 47.264C211.397 48.6293 210.714 49.8667 209.349 50.976C208.026 52.0427 206.085 52.576 203.525 52.576ZM220.488 52.576C219.037 52.576 217.8 52.1067 216.776 51.168C215.752 50.1867 215.24 48.9493 215.24 47.456C215.24 45.9627 215.752 44.7253 216.776 43.744C217.8 42.7627 219.037 42.272 220.488 42.272C221.939 42.272 223.176 42.7627 224.2 43.744C225.267 44.7253 225.8 45.9627 225.8 47.456C225.8 48.9493 225.267 50.1867 224.2 51.168C223.176 52.1067 221.939 52.576 220.488 52.576ZM237.279 16.992C235.657 16.992 234.292 16.5227 233.183 15.584C232.116 14.6027 231.583 13.344 231.583 11.808C231.583 10.272 232.116 9.03466 233.183 8.096C234.292 7.11466 235.657 6.624 237.279 6.624C238.9 6.624 240.244 7.11466 241.311 8.096C242.42 9.03466 242.975 10.272 242.975 11.808C242.975 13.344 242.42 14.6027 241.311 15.584C240.244 16.5227 238.9 16.992 237.279 16.992ZM232.863 24.544C232.863 22.7093 233.588 21.408 235.039 20.64C236.489 19.8293 238.687 19.424 241.631 19.424V47.456C241.631 49.2907 240.905 50.6133 239.455 51.424C238.004 52.192 235.807 52.576 232.863 52.576V24.544ZM262.219 52.576C259.403 52.576 256.843 52.064 254.539 51.04C252.235 50.016 250.422 48.608 249.099 46.816C247.776 44.9813 247.115 42.912 247.115 40.608V32.096C247.115 29.7493 247.755 27.616 249.035 25.696C250.315 23.7333 252.107 22.1973 254.411 21.088C256.715 19.9787 259.318 19.424 262.219 19.424C265.12 19.424 267.723 19.9787 270.027 21.088C272.331 22.1973 274.123 23.7333 275.403 25.696C276.683 27.616 277.323 29.7493 277.323 32.096V40.608C277.323 42.912 276.662 44.9813 275.339 46.816C274.016 48.608 272.203 50.016 269.899 51.04C267.595 52.064 265.035 52.576 262.219 52.576ZM262.219 45.024C264.224 45.024 265.782 44.576 266.891 43.68C268 42.784 268.555 41.5467 268.555 39.968V32.544C268.555 30.88 267.979 29.536 266.827 28.512C265.718 27.488 264.182 26.976 262.219 26.976C260.256 26.976 258.699 27.488 257.547 28.512C256.438 29.536 255.883 30.88 255.883 32.544V39.968C255.883 41.5467 256.438 42.784 257.547 43.68C258.656 44.576 260.214 45.024 262.219 45.024Z" fill="url(#paint1_linear_0_1)"/>
<path d="M34.5674 24C35.3565 24 36.1229 24.0972 36.8564 24.2773C35.4689 25.2927 34.5674 26.9331 34.5674 28.7842C34.5675 31.8664 37.0662 34.3652 40.1484 34.3652C41.6903 34.3652 43.0856 33.7393 44.0957 32.7285C44.1197 33.005 44.1348 33.2846 44.1348 33.5674C44.1348 38.8514 39.8514 43.1357 34.5674 43.1357C29.2834 43.1357 25 38.8514 25 33.5674C25.0002 28.2836 29.2835 24 34.5674 24Z" fill="url(#paint2_linear_0_1)"/>
<defs>
<linearGradient id="paint0_linear_0_1" x1="5" y1="33.5" x2="64" y2="33.5" gradientUnits="userSpaceOnUse">
<stop stop-color="#7C6BEF"/>
<stop offset="1" stop-color="#FF66C4"/>
</linearGradient>
<linearGradient id="paint1_linear_0_1" x1="88" y1="26.5" x2="300" y2="26.5" gradientUnits="userSpaceOnUse">
<stop stop-color="#7C6BEF"/>
<stop offset="1" stop-color="#FF66C4"/>
</linearGradient>
<linearGradient id="paint2_linear_0_1" x1="25" y1="33.5679" x2="44.1348" y2="33.5679" gradientUnits="userSpaceOnUse">
<stop stop-color="#7C6BEF"/>
<stop offset="1" stop-color="#FF66C4"/>
</linearGradient>
</defs>
</svg>
